<svg xmlns="http://www.w3.org/2000/svg" viewBox="0 0 416.3 416.3"><defs><style>.cls-1{fill:#29abe2;}.cls-2{fill:#fff;}</style></defs><g id="Camada_2" data-name="Camada 2"><g id="Camada_1-2" data-name="Camada 1"><circle class="cls-1" cx="208.1" cy="208.1" r="208.1"/><path class="cls-2" d="M249.3,270.5H117.6c-40.8,0-60.6-16.6-62.4-52.2-.7-14.8,4.8-29.1,15.5-40.4A65.3,65.3,0,0,1,117.6,158a63,63,0,0,1,25.7,5.4,10,10,0,0,0,12.7-4.1c16.2-27.9,48.3-45.2,83.8-45.2,47.6,0,87.1,31.3,93.2,71.7a67.8,67.8,0,0,1,20.8,7.7c-2-55.1-52.3-99.4-114-99.4-39.5,0-75.7,18.2-96.5,48a79.7,79.7,0,0,0-25.6-4,85,85,0,0,0-61.5,26.1c-14.5,15.2-22,34.8-21,55.1,1.3,24.8,10,43.5,26,55.6C75,285.3,94,290.5,117.6,290.5H256.9A68.3,68.3,0,0,1,249.3,270.5Z"/><circle class="cls-2" cx="319" cy="255.6" r="63.3"/><rect class="cls-1" x="278.3" y="280.5" width="81.4" height="9.05" rx="1"/><rect class="cls-1" x="278.3" y="265.8" width="81.4" height="9.05" rx="1"/><rect class="cls-1" x="278.3" y="251.1" width="81.4" height="9.05" rx="1"/><rect class="cls-1" x="278.3" y="236.4" width="81.4" height="9.05" rx="1"/><path class="cls-1" d="M358.7,221.7H300.9v9h57.8a.9.9,0,0,0,1-1v-7a1,1,0,0,0-1-1Z"/><path class="cls-1" d="M291.8,221.7H279.3a1,1,0,0,0-1,1v7a.9.9,0,0,0,1,1h12.5Z"/></g></g></svg>