<?xml version="1.0" encoding="UTF-8"?><svg id="Layer_2" xmlns="http://www.w3.org/2000/svg" viewBox="0 0 1076.55 416.27"><g id="Layer_1-2"><g><circle cx="208.13" cy="208.13" r="208.13" fill="#29abe2"/><path d="M249.29,270.53H117.64c-40.82,0-60.65-16.6-62.41-52.23-.73-14.79,4.77-29.13,15.48-40.38,12.04-12.65,29.15-19.91,46.92-19.91,8.86,0,17.49,1.83,25.66,5.43,4.66,2.06,10.13,.28,12.68-4.13,16.19-27.9,48.31-45.24,83.82-45.24,47.61,0,87.07,31.28,93.23,71.7,7.41,1.48,14.39,4.12,20.77,7.7-1.97-55.11-52.35-99.4-114-99.4-39.52,0-75.71,18.19-96.52,47.98-8.29-2.69-16.88-4.04-25.65-4.04-23.23,0-45.61,9.52-61.41,26.12-14.53,15.26-21.98,34.85-20.97,55.16,1.22,24.74,9.97,43.43,26.01,55.56,13.75,10.4,32.72,15.68,56.38,15.68h139.21c-3.47-6.16-6.05-12.88-7.56-20Z" fill="#fff"/><circle cx="318.99" cy="255.64" r="63.34" fill="#fff"/><rect x="278.27" y="280.53" width="81.44" height="9.05" rx="1" ry="1" fill="#29abe2"/><rect x="278.27" y="265.82" width="81.44" height="9.05" rx="1" ry="1" fill="#29abe2"/><rect x="278.27" y="251.12" width="81.44" height="9.05" rx="1" ry="1" fill="#29abe2"/><rect x="278.27" y="236.41" width="81.44" height="9.05" rx="1" ry="1" fill="#29abe2"/><g><path d="M532.16,342.2c0,4.5-.78,8.45-2.33,11.85-1.56,3.4-3.78,6.02-6.66,7.85-2.89,1.83-6.22,2.75-10,2.75-5.71,0-10.31-2.04-13.83-6.12-3.51-4.08-5.27-9.59-5.27-16.53v-5.03c0-4.45,.79-8.4,2.37-11.83,1.58-3.43,3.81-6.07,6.7-7.92,2.89-1.85,6.21-2.77,9.97-2.77s7.08,.91,9.95,2.72,5.1,4.37,6.66,7.69c1.56,3.31,2.38,7.15,2.45,11.51v5.84Zm-4.13-5.3c0-5.88-1.33-10.49-3.99-13.83-2.66-3.33-6.31-5-10.94-5s-8.16,1.67-10.86,5.02c-2.7,3.34-4.04,8.02-4.04,14.01v5.1c0,5.79,1.34,10.39,4.03,13.78,2.69,3.39,6.33,5.08,10.94,5.08s8.32-1.67,10.94-5.02c2.62-3.34,3.93-8,3.93-13.98v-5.17Z" fill="#494544"/><path d="M630.49,363.98h-4.13l-28.09-41.82v41.82h-4.16v-48.87h4.16l28.12,41.85v-41.85h4.09v48.87Z" fill="#494544"/><path d="M766.89,360.49h24.13v3.49h-28.29v-48.87h4.16v45.38Z" fill="#494544"/><path d="M855.52,363.98h-4.13v-48.87h4.13v48.87Z" fill="#494544"/><path d="M956.71,363.98h-4.13l-28.09-41.82v41.82h-4.16v-48.87h4.16l28.12,41.85v-41.85h4.09v48.87Z" fill="#494544"/><path d="M1047.66,340.56h-22.86v19.94h26.28v3.49h-30.41v-48.87h30.24v3.49h-26.11v18.46h22.86v3.49Z" fill="#494544"/></g><g><path d="M358.71,221.71h-57.82v9.05h57.82c.55,0,1-.45,1-1v-7.05c0-.55-.45-1-1-1Z" fill="#29abe2"/><path d="M291.84,221.71h-12.57c-.55,0-1,.45-1,1v7.05c0,.55,.45,1,1,1h12.57v-9.05Z" fill="#29abe2"/></g><path d="M484.87,238.56c14.95,2.72,40.1,6.12,57.1,6.12,30.59,0,43.84-10.54,43.84-28.55,0-16.65-11.21-21.07-45.54-33.65-30.25-11.22-59.14-23.45-59.14-62.19s28.55-63.89,83.27-63.89c17.67,0,37.38,2.72,56.08,6.46l-5.44,37.04c-13.59-2.38-36.03-6.12-52.68-6.12-19.37,0-37.38,5.1-37.38,23.11,0,19.37,19.71,23.45,47.58,33.65,27.87,10.2,56.76,24.81,56.76,64.91s-29.23,66.61-88.02,66.61c-19.37,0-43.16-3.06-62.19-6.12l5.78-37.38Z" fill="#29abe2"/><path d="M670.43,167.87c0-68.99,26.85-111.47,104-111.47,19.71,0,40.1,2.72,58.11,6.46l-5.44,36.37c-15.63-2.72-37.38-5.44-52.68-5.44-50.98,0-60.5,29.57-60.5,73.75s9.52,76.81,53.02,76.81c8.5,0,21.41-1.36,30.59-4.08v-76.13h42.82v101.62c-20.39,9.86-47.92,16.31-74.09,16.31-69.33,0-95.84-45.88-95.84-114.19Z" fill="#29abe2"/><path d="M970.52,56.4c-18.69,0-43.84,2.38-66.27,6.12V192.39h42.82V95.48c7.48-1.02,16.99-1.36,22.77-1.36,48.6,0,63.21,23.79,63.21,75.79s-14.27,74.43-64.91,74.43c-4.16,0-8.81-.16-13.81-.48-12.57-.65-28.91-2.12-50.08-4.88v38.66c22.77,3.06,49.62,4.42,64.23,4.42,76.47,0,108.08-37.04,108.08-112.83s-31.27-112.83-106.04-112.83Z" fill="#29abe2"/></g></g></svg>